<?xml version="1.0" standalone="no"?><!DOCTYPE svg PUBLIC "-//W3C//DTD SVG 1.1//EN" "http://www.w3.org/Graphics/SVG/1.1/DTD/svg11.dtd"><svg t="1610263031479" class="icon" viewBox="0 0 1024 1024" version="1.1" xmlns="http://www.w3.org/2000/svg" p-id="2589" xmlns:xlink="http://www.w3.org/1999/xlink" width="200" height="200"><defs><style type="text/css"></style></defs><path d="M917.11 151.72c-56.85-13.93-114.92-27-171.77-42.54-43.14-11.82-68-27.82-107.12-3.45C539.73 167.11 444.49 236 353.7 308.68c-4 3.2-4.57 7.72-3.23 11.83C259.73 379.5 170.26 440.26 91 514.78c-62.55 58.81-1.6 143.29 34.13 200.65C152.92 760.06 178 806.77 210 848.6c18.28 23.92 44.09 75.88 77.46 81.81 29.11 5.17 59.07-24.79 80.61-39.14 54.41-36.25 106.19-76.11 158.81-114.9 92.39-68.11 186.24-135 278-203.63 77.29-57.82 84.59-167.44 114.07-252.87 19.37-56.23 82.81-147.4-1.84-168.15z m-15.19 94.62c-10.47 28.08-20.71 56.39-30.93 84.59C854.21 377.25 844.2 426.38 826 472c-25.61 64.32-94.12 94.84-147.46 134-46.54 34.29-91.69 70.42-137.86 105.21-21.31 16.05-42.8 29.63-64.23 45.54 0.22-25.82-0.45-79.75-0.45-79.75 0-23.31-5.69-23.31-5.69 0 0 0-0.89 57.26-0.5 84.73-13.93 10.33-27.79 21.9-41.75 32.2-0.72-0.07-1.44 0.57-2.09 0.9-6-15.28-1.06-37.65-1.48-52.77a376.34 376.34 0 0 0-7-61.46c-0.72-3.72-6.39-2.07-5.68 1.64a345.16 345.16 0 0 1 5.32 85.91c-0.67 11.59-2 22.79 3 32.8-5.41 4-10.76 8.07-16.17 12-10.28 7.56-20.78 14.76-31.32 21.9-1.93-18.06-5.15-36.08-4.67-54.27 0.67-25.86 7-48.89-2.15-74-1.42-3.88-7.61-2.28-6.27 1.73 9.27 27.69-0.26 54.37 0.42 82.51a282.23 282.23 0 0 0 5.59 47.59c0.08 0.39 0.42 0.53 0.59 0.83-13.4 9-26.83 18-40 27.37-5.15 3.67-9.23 6.61-12.67 8.89-7.91-36.57-0.62-77.1 2.19-114 1.6-21 11.63-51.45-3-69.05-2.31-2.78-6.17 1.19-3.95 3.95 10 12.47 3.23 33.85 1.83 48.19-1.66 16.95-3 33.9-4.43 50.86-2.38 28.69-7.53 56.33-0.5 84.47-9.45 3.91-13.69-2.07-31.5-18.1-18.66-16.8-34.29-37.4-48.5-59.32-4.21-24.47 3.72-53.73 7-77.6 3.49-25.33 7.37-50.44 9.28-76 0.26-3.46-5.11-3.43-5.38 0-2.88 36.17-9.5 72.42-15.61 108.19-1.82 10.69-3.93 20.68-4.5 30.64-10.64-17.46-20.65-35.37-30.73-52.59 1.24-14.32 6-29.08 8.52-42 4.51-23.3 8.48-46.43 8.1-70.21a2.08 2.08 0 0 0-4.16 0c-0.53 32.31-9.32 63.38-15.93 94.78q-0.92 4.38-1.71 8.78c-2.42-4-4.82-8.12-7.28-12-4.72-7.54-9.5-15-14.25-22.48 0.56-26.18 5.19-51.78 9.74-77.7 4.11-23.4 7.55-47.68 21.41-67.63 2.48-3.56-3.31-6.86-5.79-3.38-14.42 20.22-18.44 45.05-22.94 69-4.15 22.07-9 44.15-10.67 66.48-5.43-8.69-10.84-17.4-15.91-26.34a3.21 3.21 0 0 0 4-2.5c5.21-23 7.89-46.53 13.46-69.46 4.46-18.37 9.9-36.13 12-55 0.43-3.84-5.54-3.77-6 0-2.57 21.35-9.7 41.25-14.39 62.12-4.44 19.78-7.13 39.85-11.95 59.55-1.47-2.68-3-5.29-4.43-8-24-46.29-27.78-72.47 11.28-111.37 73-72.68 158.35-131.33 242.34-190.35 73.73-51.8 158.15-104.4 228.12-165.8 13.25-7.42 26.57-14.67 40-21.6 25.14-13 38.08-13 67.28-8 22.17 3.79 44.36 11.55 66.55 16 29.31 5.85 55.29 13.52 83.63 22 2 0.6 52.59 9.79 52.93 10.32 5.21 8.31-13.95 45.9-17.71 55.99z" fill="#333333" p-id="2590"></path><path d="M811.89 206.19c-22.82-3.2-48.11 7.39-67.84 24.59a93.63 93.63 0 0 0-19.81 17.32c-17.79 20.39-33.4 51.92-22 78.92 23.46 55.51 120.09 57.21 145.61 3.67 18.73-39.31 19.06-116.79-35.96-124.5z m5.06 110.42c-12.36 20-49.27 25-72.26 13.31 2-3.37 2.5-7.66-0.33-12.41-10.86-18.22-1.91-42.33 9.8-58.3 11.48-15.67 46.22-37.45 64.84-19.21 14.59 14.29 7.83 60.59-2.06 76.61zM268.46 778.63q2.36-29.1 5.44-58.13c0.3-2.88-4.1-2.79-4.47 0-3.3 25.3-5.43 50.76-8.8 76-2.54 19.11-7.4 31.79 1.2 49.37 2.17 4.44 9 0.53 6.66-3.89-8.49-16.15-1.49-45.17-0.03-63.35zM527.37 686.68l-6.54-13c-1.5-3-5.95-0.36-4.47 2.61l6.45 13c1.51 3.1 6.09 0.43 4.56-2.61zM573.22 607.06h-5.27c0 46.63-0.74 40.5-0.46 60 0.06 4 6.14 3.25 6.19-0.74 0.32-19.51-0.42-12.63-0.46-59.26zM611.55 590.54a2 2 0 0 0-4 0l-0.1 19.49c0 2.68 4.18 2.68 4.16 0q-0.01-9.74-0.06-19.49zM683.56 581.53a28.44 28.44 0 0 1-5.83-22.6c0.6-4.13-5.67-6-6.36-1.75-1.72 10.5 0.09 20.12 6.61 28.66a3.54 3.54 0 1 0 5.58-4.31zM626.5 431.71c-8.77-27-16.3-49-34-71.28-4.4-5.54-13.69-3.24-16.86 2.17-16 27.24-8.83 74.39-25.25 95.72-12.65 16.43-11.14-15.29-18.78-27.92-5.48-9.05-4.68-9.87-12.5-19.68-5.16-6.47-14.19-0.48-14.77 6.12-3.38 38.65 9.22 73.77 8.7 110-0.58 39.72-53.48-58.2-62.72-73.77-4.22-7.11-18.08-4.79-16.87 4.57 4.17 32.32 19.29 78.82 15.41 110.24-7 56.28-49.88-24.63-61.09-44.84-4.6-8.29-15.3-2.13-14.15 6 1.87 13.1 29 101.82-4.58 100-12.93-0.71-44-77.15-50.78-89.44-3.65-6.64-13-3.13-13.44 3.64-1.32 19.28 29.5 102.54 11.64 111.71-4.25 2.18-31.48-72.86-33.42-85.22-0.87-5.53-10.54-4.3-9.87 1.34 2.88 24.3 22.45 114.31 58.09 110.78 3.29-0.33 6.16-2.07 7.1-5.41 7.34-26.07-1-51.69-8.85-77.49 14.88 31.56 34 61.92 65.42 65 4 0.39 7.2-3 8.42-6.41 8.54-23.78 4.51-52-1.82-79.31 13.06 20.47 29.13 37.94 53.5 40.9 4.24 0.51 7.39-3.25 8.77-6.68 11.56-28.71 5.87-67.92-1.55-104 15 24.93 31.31 47.9 58.19 65 4.45 2.83 11.38 1.09 13.84-3.63 6.58-12.62 4.92-22.89 2.29-36.72-5.05-26.51-10.46-51.39-13.19-77.34 4.31 13.23 8.53 26.27 21.36 36.79 4.19 3.44 12.18 4.18 14.89-1.92 14.29-32.2 14.05-68.18 26.63-100.35a210.45 210.45 0 0 1 19.41 47.27c4.22 13.11 25.14 7.45 20.83-5.84z" fill="#333333" p-id="2591"></path></svg>