<?xml version="1.0" standalone="no"?><!DOCTYPE svg PUBLIC "-//W3C//DTD SVG 1.1//EN" "http://www.w3.org/Graphics/SVG/1.1/DTD/svg11.dtd"><svg t="1610869131435" class="icon" viewBox="0 0 1024 1024" version="1.1" xmlns="http://www.w3.org/2000/svg" p-id="2524" xmlns:xlink="http://www.w3.org/1999/xlink" width="200" height="200"><defs><style type="text/css"></style></defs><path d="M917.64 829.88c-23.4 0-42.36-18.97-42.36-42.36 0-140.37-113.79-254.17-254.17-254.17H189.02l205.45 180.04c17.66 15.44 19.47 42.28 4.02 59.94-15.44 17.66-42.28 19.46-59.94 4.02L84.39 554.95c-25.03-22.19-27.34-60.48-5.14-85.52a60.559 60.559 0 0 1 44.96-20.38h496.9C808.27 449.05 960 600.78 960 787.94c-0.23 23.23-19.13 41.94-42.36 41.94zM249.6 395.67l145.3-127.08c17.66-15.44 19.47-42.28 4.02-59.94-15.44-17.66-42.28-19.46-59.94-4.02l-145.3 127.08c-17.66 15.44-19.47 42.28-4.02 59.94s42.28 19.46 59.94 4.02z" fill="#333333" p-id="2525"></path></svg>