<?xml version="1.0" standalone="no"?><!DOCTYPE svg PUBLIC "-//W3C//DTD SVG 1.1//EN" "http://www.w3.org/Graphics/SVG/1.1/DTD/svg11.dtd"><svg t="1610262287632" class="icon" viewBox="0 0 1024 1024" version="1.1" xmlns="http://www.w3.org/2000/svg" p-id="1067" xmlns:xlink="http://www.w3.org/1999/xlink" width="200" height="200"><defs><style type="text/css"></style></defs><path d="M218.930863 96.077395C262.11674 77.183573 318.798204 38.624755 364.29761 66.772692c21.592939 13.881175 23.135291 43.571465 50.897641 54.753523 70.948227 28.533526 133.413514-97.9394 181.22645-77.117638 5.398235 2.313529 20.436174 47.041759 38.558819 56.295876 31.232643 17.737057 60.537346-7.326176 87.14293 0 115.676457 38.558819 18.508233 71.719403-11.182057 92.926754-41.257936 29.304702-25.834409 31.232643-90.613225 30.461467s-185.853507-28.533526-249.475558 9.254116c-32.774996 19.664998-48.198524 43.571465-15.809116 69.405874 24.677644 19.664998 109.507046 8.48294 142.66763 10.410881 41.643524 2.313529 106.807929 18.508233 146.523512 5.783823 33.546172-10.796469 58.609405-27.76235 47.427347-65.93558-4.24147-13.881175-35.859702 6.940587-32.389408 18.893821 11.182057 38.558819-260.272028 0-260.657616 6.554999 2.699117-60.922934 249.475559-23.52088 282.636143-21.20735a30.847055 30.847055 0 0 0 25.063233-16.96588c20.050586-57.838228 123.388221-62.850875 129.557631-132.256749a47.041759 47.041759 0 0 0-22.364115-48.9697c-33.931761-17.737057-216.700563 72.876168-177.370567-51.668818 1.927941-6.554999-5.012646-7.711764-9.254116-7.326175a184.311155 184.311155 0 0 0-75.189697 33.160584C527.401415 47.493283 450.283777 92.221513 422.135839 81.425044 404.398782 74.098868 397.072607 36.311225 379.721138 25.900344c-61.69411-38.558819-99.867341 23.52088-154.235276 45.499407-12.72441 5.012646-28.533526 34.317349-5.398234 25.063232z" p-id="1068"></path><path d="M180.372044 103.40357a190.480566 190.480566 0 0 0 123.388221 161.561452c11.953234 4.627058 38.558819-21.978527 26.219997-26.991173a180.069685 180.069685 0 0 1-115.676457-154.235276c0-13.109998-33.546172 5.783823-32.389408 18.893821zM677.009632 292.727371a226.340267 226.340267 0 0 1 250.246735 77.117638c8.097352 10.410881 38.558819-13.495587 30.461467-23.906467a245.234089 245.234089 0 0 0-275.309967-77.117638c-13.495587 4.627058-28.919114 33.160584-5.398235 25.063232z" p-id="1069"></path><path d="M328.437909 303.138253C190.397337 428.454414 10.713241 605.053805 80.119115 812.885839s394.842306 224.797915 572.984049 204.747329c171.201156-19.279409 235.208796-51.283229 279.551438-220.556445a412.193775 412.193775 0 0 0-6.169411-278.394672c-47.427347-122.231456-173.514685-142.66763-224.026738-246.390854-5.012646-10.410881-36.630878 11.182057-30.461467 23.906468 27.76235 57.067052 72.876168 70.948227 121.074691 109.121458a320.038197 320.038197 0 0 1 124.544985 219.39968 453.451711 453.451711 0 0 1-52.825581 272.996438c-48.584112 82.130284-138.42616 90.613225-233.666443 95.625871-138.811748 6.940587-324.665256-7.711764-436.871419-93.312342-231.352914-177.370567 2.313529-452.294946 154.235276-588.793165 19.279409-17.351469-6.169411-20.050586-19.27941-8.097352z" p-id="1070"></path><path d="M766.466092 609.295275c-59.380581-121.845868-197.806741-154.235276-323.508491-145.752336-95.240283 5.012646-94.083518 28.919114-94.083518 121.46028 0 55.139111-11.953234 86.371754 38.558819 107.193517 70.948227 29.690291 179.684096 18.122645 256.030558 28.147938a460.00671 460.00671 0 0 1 71.333815 11.953234q38.558819 99.096165-38.558819 80.202343a512.061116 512.061116 0 0 1-131.099985 0c-97.553812 0-196.649977 8.097352-287.648789-33.160584-11.567646-5.398235-38.558819 21.20735-26.219997 26.991173 69.020286 31.232643 631.979043 104.879988 556.789346-62.465287-48.198524-107.579105-287.648789-33.160584-369.007898-77.117638a108.735869 108.735869 0 0 1-36.245289-121.074691c23.906468-72.876168 85.600578-57.067052 143.053218-49.355288a257.187322 257.187322 0 0 1 211.687916 136.883807c5.012646 10.410881 36.630878-11.182057 30.461467-23.906468z" p-id="1071"></path><path d="M493.084066 355.192658v575.683167c0 12.338822 32.389408-5.783823 32.389408-18.893821V336.298837c0-12.338822-32.389408 5.783823-32.389408 18.893821z" p-id="1072"></path></svg>