<?xml version="1.0" standalone="no"?><!DOCTYPE svg PUBLIC "-//W3C//DTD SVG 1.1//EN" "http://www.w3.org/Graphics/SVG/1.1/DTD/svg11.dtd"><svg t="1610262329612" class="icon" viewBox="0 0 1061 1024" version="1.1" xmlns="http://www.w3.org/2000/svg" p-id="1332" xmlns:xlink="http://www.w3.org/1999/xlink" width="207.2265625" height="200"><defs><style type="text/css"></style></defs><path d="M120.790566 632.498232v345.04295l40.821983-23.812824v-187.58673a857.261639 857.261639 0 0 0 0-93.793365 62.690902 62.690902 0 0 0-10.691472-43.251863H196.116844c37.906127 8.261592 35.962223 14.093304 44.223815 48.597598a594.834607 594.834607 0 0 1 6.803663 109.830573c2.42988 64.14883 0 128.29766 0 194.390395 0 15.065256 40.336007-7.28964 40.821983-23.812824a2456.122633 2456.122633 0 0 0-11.663424-356.706373 7.28964 7.28964 0 0 0-7.775615-5.831712c-48.597599 0-124.409852-19.925015-145.792796 40.821983A485.975986 485.975986 0 0 0 120.790566 778.291027v200.708083c0 15.551232 40.821983-7.28964 40.821983-23.812824V608.199432c0-15.551232-40.821983 7.28964-40.821983 23.812824zM379.815766 957.616166c0-104.970813 0-209.45565 7.28964-314.426463 0-33.046367-6.803664-109.830573 10.205496-138.503156q-6.317688-31.102463 15.551232-13.607327h60.746998q51.99943-12.1494 65.606758 48.597598l3.401832 36.934175a900.027526 900.027526 0 0 1 9.233544 153.082436c3.401832 87.475677 2.42988 174.465379 0 261.941056 0 15.065256 40.336007-7.28964 40.821982-23.812823a2940.154715 2940.154715 0 0 0-11.177447-432.518627c-3.401832-31.102463-2.915856-62.204926-33.046367-78.242134a335.809406 335.809406 0 0 0-140.44706 0c-48.597599 11.177448-48.597599 37.906127-52.971383 85.045797a3762.426083 3762.426083 0 0 0-16.037207 440.294244c0 15.551232 40.821983-7.28964 40.821982-23.812824zM672.37331 965.877758v-431.546675q3.401832-136.559252 11.177448-273.118505c4.85976-90.391533 0-97.195197 93.793365-86.503725a173.979403 173.979403 0 0 1 119.550093 24.784775V263.156482c17.981111 71.43847-5.345736 180.783067-6.803664 255.137393-2.42988 148.708652 0 297.903279 0 446.611931 0 15.551232 41.307959-7.28964 40.821983-23.812823-3.401832-234.240425 4.85976-467.994874 6.317687-701.749324 0-75.326278 17.495135-71.924446-25.756727-100.111053a643.432205 643.432205 0 0 0-219.661146 0c-69.980542 35.476247-46.167719 126.839732-48.597598 198.278202-10.205496 216.74529-13.121352 433.976555-10.205496 650.721845 0 15.551232 41.307959-7.28964 40.821983-23.812823z" p-id="1333"></path><path d="M44.492336 1015.933285c169.119643 5.831712 340.18319 12.635376 507.844905 3.887807 158.428171-7.775616 316.370367-42.765887 474.798539-39.364054 11.177448 0 37.420151-15.551232 33.046367-29.644536a204.109914 204.109914 0 0 0-31.588439-75.326277c-7.28964-13.121352-48.597599 14.57928-38.392103 30.130511 33.532343 60.746998-105.456789 48.597599-135.5873 53.943334-92.335437 9.71952-184.184899 22.840871-277.006312 27.214655-169.119643 8.261592-340.18319 0-507.844906-3.887807-15.065256 0-48.597599 34.504295-25.756727 35.476247zM41.090504 675.264118c34.504295-80.672014 113.718381-297.903279 220.147122-258.539224 34.504295 12.635376 56.373214 48.597599 97.195197 35.476247 30.130511-11.177448 41.307959-48.597599 52.971383-75.812254A923.354373 923.354373 0 0 1 633.495231 57.102664c21.382943-18.953063 7.28964-38.392103-14.579279-18.953063a919.952541 919.952541 0 0 0-176.409283 212.371506c-21.382943 35.476247-35.476247 80.672014-59.775047 113.71838-32.074415 43.737839-27.700631 48.597599-84.073845 18.953064 10.691472 5.831712-48.597599-37.420151-48.597599-34.990271-4.85976-3.401832-14.57928 0-18.467087 3.887808C124.192398 419.64075 50.324048 570.293305 1.726449 681.09583c-10.691472 24.784775 31.588439 6.317688 37.420151-7.775615z" p-id="1334"></path><path d="M492.562195 36.691673a374.201509 374.201509 0 0 1 125.867781 12.635376c15.551232 4.373784 48.597599-29.644535 33.046367-34.018319a396.556405 396.556405 0 0 0-133.157421-14.57928 39.364055 39.364055 0 0 0-30.616487 17.981111c-3.401832 5.345736-8.747568 18.953063 3.401832 18.467088z" p-id="1335"></path></svg>